<?xml version="1.0" encoding="utf-8"?>
<!-- Svg Vector Icons : http://www.onlinewebfonts.com/icon -->
<!DOCTYPE svg PUBLIC "-//W3C//DTD SVG 1.1//EN" "http://www.w3.org/Graphics/SVG/1.1/DTD/svg11.dtd">
<svg version="1.1" xmlns="http://www.w3.org/2000/svg" xmlns:xlink="http://www.w3.org/1999/xlink" x="0px" y="0px" viewBox="0 0 1000 1000" enable-background="new 0 0 1000 1000" xml:space="preserve">
<metadata> Svg Vector Icons : http://www.onlinewebfonts.com/icon </metadata>
<g><g><path d="M423.5,465.3V82.9c0-42.2,34.3-76.5,76.5-76.5s76.5,34.3,76.5,76.5v382.4c0,42.2-34.3,76.5-76.5,76.5S423.5,507.5,423.5,465.3z M803.2,118.6c-24.8-19.6-60.9-15.3-80.5,9.5c-19.6,24.9-15.4,60.9,9.5,80.6c91,71.8,143.1,179.3,143.1,294.9c0,206.9-168.4,375.3-375.2,375.3c-206.9,0-375.3-168.4-375.3-375.3c0-115.6,52.1-223.1,143-294.8c24.9-19.6,29.1-55.7,9.5-80.6c-19.6-24.9-55.6-29.1-80.6-9.5C78,212.3,10,352.6,10,503.6c0,270.2,219.8,490,490,490s490-219.8,490-490C990,352.5,921.9,212.2,803.2,118.6z"/></g><g></g><g></g><g></g><g></g><g></g><g></g><g></g><g></g><g></g><g></g><g></g><g></g><g></g><g></g><g></g></g>
</svg>